HIERARCHY
ROOT Hips
{
	OFFSET 0.00000 0.00000 0.00000
	CHANNELS 6 Xposition Yposition Zposition Yrotation Zrotation Xrotation 
	JOINT Lumbar
	{
		OFFSET 0 0 0
		CHANNELS 3 Zrotation Xrotation Yrotation
		JOINT Neck
		{
			OFFSET 0.00 0.2701 0.00
			CHANNELS 3 Zrotation Xrotation Yrotation
			End Site
			{
				OFFSET 0.00 0.1379 0.00
			}
		}
		JOINT RightShoulder
		{
			OFFSET 0.0119 0.2289 0.1181
			CHANNELS 3 Zrotation Xrotation Yrotation
			JOINT RightElbow
			{
				OFFSET 0.00 -0.1475 0.00
				CHANNELS 2 Zrotation Yrotation
				JOINT RightWrist
				{
					OFFSET 0.00 -0.1605 0.00
					CHANNELS 2 Zrotation Xrotation
					End Site
					{
						OFFSET 0.0040 -0.1068 0.0006
					}
				}
			}
		}
		JOINT LeftShoulder
		{
			OFFSET 0.0119 0.2289 -0.1181
			CHANNELS 3 Zrotation Xrotation Yrotation
			JOINT LeftElbow
			{
				OFFSET 0.00 -0.1475 0.00
				CHANNELS 2 Zrotation Yrotation
				JOINT LeftWrist
				{
					OFFSET 0.00 -0.1605 0.00
					CHANNELS 2 Zrotation Xrotation
					End Site
					{
						OFFSET 0.0040 -0.1068 -0.0006
					}
				}
			}
		}
	}
	JOINT RightHip
	{
		OFFSET 0.0316 -0.0424 0.0458
		CHANNELS 3 Zrotation Xrotation Yrotation
		JOINT RightKnee
		{
			OFFSET 0.00 -0.2438 0.00
			CHANNELS 1 Zrotation
			JOINT RightAnkle
			{
				OFFSET 0.00 -0.2449 0.00
				CHANNELS 3 Zrotation Xrotation Yrotation
				End Site
				{
					OFFSET 0.1237 -0.0542 0.0051
				}
			}
		}
	}
	JOINT LeftHip
	{
		OFFSET 0.0316 -0.0424 -0.0458
		CHANNELS 3 Zrotation Xrotation Yrotation
		JOINT LeftKnee
		{
			OFFSET 0.00 -0.2438 0.00
			CHANNELS 1 Zrotation
			JOINT LeftAnkle
			{
				OFFSET 0.00 -0.2449 0.00
				CHANNELS 3 Zrotation Xrotation Yrotation
				End Site
				{
					OFFSET 0.1237 -0.0542 -0.0051
				}
			}
		}
	}
}
MOTION
Frames: 32
Frame Time: 0.02
-0 0.57926 0 181.41711 0 -3.76499 8.39406 3.36298 -3.35379 -27.95189 7.38441 5.07126 22.13211 -21.69361 19.02478 10.86604 81.58676 -2.22516 -4.2769 20.65784 4.3694 -10.52257 7.00616 -79.13271 -3.24173 2.27791 -4.94922 8.66433 2.90033 -7.55224 -9.36582 -2.82672 -8.41167 -7.81108 2.63953 12.71873 -2.62217 -4.72986 3.24382 6.12578
0.00022 0.57922 -1e-05 181.37899 0 -3.76394 8.34726 3.36123 -3.25194 -28.05105 7.34466 5.05597 21.7749 -21.61144 18.48652 10.55159 81.54262 -2.10293 -3.97607 20.37144 4.44941 -9.09407 6.76854 -79.04745 -3.21328 2.14335 -4.87092 8.66883 3.03553 -7.66745 -9.31557 -2.83909 -8.48583 -7.84197 2.62571 12.82059 -2.53006 -4.75139 3.22893 6.06637
0.00044 0.57918 -3e-05 181.34137 0 -3.76289 8.30067 3.35943 -3.15097 -28.15013 7.30507 5.04052 21.42004 -21.52981 17.95048 10.23897 81.49875 -1.98158 -3.67723 20.08788 4.52906 -7.67834 6.53307 -78.96277 -3.18505 2.00984 -4.79305 8.67339 3.1696 -7.78188 -9.26579 -2.85136 -8.55955 -7.87255 2.61207 12.9215 -2.43851 -4.77291 3.21413 6.00734
0.00066 0.57913 -4e-05 181.30513 0 -3.76189 8.25451 3.35734 -3.05231 -28.24941 7.26601 5.02485 21.06984 -21.44959 17.4171 9.93001 81.45609 -1.86263 -3.38362 19.81079 4.60801 -6.29614 6.30302 -78.88036 -3.15718 1.87854 -4.71605 8.67815 3.30044 -7.89475 -9.2171 -2.86338 -8.63186 -7.9026 2.59897 13.02006 -2.34774 -4.79465 3.19957 5.94902
0.00088 0.57909 -5e-05 181.26124 0 -3.7607 8.20612 3.35669 -2.94115 -28.34709 7.22448 5.01101 20.69346 -21.36195 16.86843 9.60092 81.40772 -1.73105 -3.06257 19.49691 4.69062 -4.73196 6.04322 -78.78687 -3.12713 1.73475 -4.6343 8.68177 3.44825 -8.01642 -9.16229 -2.87675 -8.71111 -7.93596 2.58297 13.13161 -2.25217 -4.81529 3.18377 5.88667
0.00109 0.57905 -7e-05 181.23382 0 -3.75988 8.16246 3.35305 -2.85673 -28.44844 7.18802 4.99286 20.37385 -21.29006 16.35345 9.31523 81.37102 -1.62624 -2.79971 19.26287 4.76546 -3.55719 5.84734 -78.71624 -3.10189 1.61803 -4.5628 8.68782 3.56014 -8.11901 -9.1207 -2.88722 -8.77597 -7.96194 2.57315 13.21519 -2.16733 -4.83818 3.17062 5.83311
0.0013 0.57905 -0.00018 181.25077 0 -3.76045 8.13142 3.34042 -2.84487 -28.55966 7.16668 4.96573 20.19934 -21.26153 15.91401 9.14179 81.37056 -1.59581 -2.69761 19.23653 4.81965 -3.44052 5.82292 -78.71517 -3.0884 1.57154 -4.51768 8.70109 3.57365 -8.17257 -9.11411 -2.88988 -8.80039 -7.97035 2.5804 13.22444 -2.10678 -4.86855 3.16449 5.8015
0.00151 0.57905 -0.00031 181.28452 0 -3.76133 8.10515 3.32493 -2.86021 -28.67456 7.15022 4.93368 20.08418 -21.24888 15.51147 9.01342 81.38121 -1.59236 -2.65428 19.29316 4.86592 -3.72034 5.86401 -78.73632 -3.08005 1.55321 -4.48319 8.71683 3.55231 -8.20626 -9.12126 -2.88953 -8.81185 -7.9708 2.59389 13.20501 -2.05797 -4.90099 3.16108 5.77913
0.00171 0.57905 -0.00043 181.31144 0 -3.76185 8.07699 3.3112 -2.86394 -28.78832 7.13082 4.90195 19.94917 -21.22903 15.10267 8.86908 81.38407 -1.57617 -2.58371 19.32005 4.91539 -3.82953 5.8783 -78.7427 -3.07027 1.52487 -4.44505 8.73104 3.54443 -8.24668 -9.12292 -2.89052 -8.82792 -7.97305 2.60458 13.19667 -2.00727 -4.93164 3.15661 5.75405
0.00192 0.57905 -0.00055 181.33523 0 -3.76329 8.04788 3.29544 -2.86459 -28.9006 7.11459 4.8783 19.78385 -21.2092 14.64892 8.70549 81.39824 -1.56173 -2.51478 19.31315 4.96654 -3.89723 5.87975 -78.76747 -3.05655 1.48461 -4.402 8.7466 3.54024 -8.29671 -9.12087 -2.89185 -8.84353 -7.98292 2.61522 13.19613 -1.94219 -4.9658 3.15143 5.72285
0.00213 0.57906 -0.00066 181.36917 0 -3.76288 8.02163 3.28334 -2.87804 -29.01589 7.09275 4.83666 19.6961 -21.193 14.29837 8.59301 81.39185 -1.55036 -2.45715 19.39658 5.01231 -4.14704 5.92392 -78.76087 -3.0524 1.47605 -4.37162 8.76038 3.52807 -8.3221 -9.13046 -2.89148 -8.86435 -7.97507 2.62732 13.17304 -1.90965 -4.99323 3.14835 5.70638
0.00233 0.5791 -0.00076 181.43011 0 -3.75758 8.00409 3.28103 -2.92067 -29.14664 7.05557 4.7466 19.80497 -21.18364 14.21675 8.6079 81.32295 -1.53822 -2.40994 19.70696 5.04503 -4.78936 6.06652 -78.64767 -3.07211 1.54658 -4.37412 8.76472 3.42975 -8.28381 -9.16279 -2.88965 -8.83588 -7.92003 2.64286 13.0905 -1.96548 -5.00077 3.15061 5.72998
0.00255 0.57916 -0.00084 181.50002 0 -3.7504 7.98888 3.28272 -2.97515 -29.27873 7.01229 4.63861 19.99046 -21.17726 14.23905 8.67324 81.23361 -1.52872 -2.37334 20.10577 5.07265 -5.60369 6.25055 -78.5047 -3.10149 1.64838 -4.38878 8.76776 3.3351 -8.22164 -9.20716 -2.88583 -8.82256 -7.84758 2.65951 12.98711 -2.05326 -5.00163 3.15484 5.76771
0.00276 0.57922 -0.00093 181.56391 0 -3.74384 7.97127 3.28317 -3.02392 -29.40502 6.97089 4.53875 20.14284 -21.16909 14.21835 8.71717 81.15553 -1.51972 -2.33596 20.46556 5.10264 -6.34803 6.41784 -78.38509 -3.1273 1.73679 -4.39766 8.77417 3.29029 -8.17055 -9.2504 -2.88116 -8.84998 -7.78315 2.67498 12.89594 -2.12567 -5.00605 3.15805 5.79793
0.00295 0.57927 -0.00102 181.63698 0 -3.7381 7.95947 3.28092 -3.07506 -29.55363 6.93345 4.4387 20.28993 -21.16335 14.18097 8.756 81.06927 -1.50447 -2.28324 20.82345 5.13203 -7.07182 6.5784 -78.22537 -3.14987 1.82248 -4.40844 8.76958 3.03938 -8.11723 -9.27715 -2.88341 -8.68832 -7.71762 2.69333 12.79188 -2.20263 -5.00829 3.16191 5.83326
0.0032 0.57933 -0.00109 181.69238 0 -3.73042 7.93607 3.2855 -3.12365 -29.65566 6.88625 4.33499 20.46564 -21.15302 14.2027 8.81718 80.99537 -1.50252 -2.26461 21.20506 5.16169 -7.87392 6.76222 -78.14108 -3.18135 1.92118 -4.41745 8.78673 3.20332 -8.06389 -9.33921 -2.8713 -8.90867 -7.65078 2.70608 12.71045 -2.27686 -5.01353 3.1648 5.86095
0.00359 0.57939 -0.00113 181.70049 0 -3.71594 7.87994 3.30593 -3.1631 -29.63182 6.81369 4.22431 20.69987 -21.12939 14.36077 8.92454 80.95761 -1.53657 -2.33405 21.6313 5.19245 -8.8492 6.99763 -78.27878 -3.23557 2.04552 -4.42344 8.87177 4.65254 -8.00996 -9.51055 -2.81467 -10.31898 -7.58087 2.7014 12.69376 -2.34168 -5.028 3.16499 5.86606
0.00404 0.57945 -0.00114 181.68977 0 -3.69989 7.81209 3.33342 -3.19939 -29.56049 6.73154 4.11079 20.96029 -21.10092 14.57498 9.05302 80.93346 -1.58384 -2.43779 22.07762 5.22395 -9.89499 7.25514 -78.49214 -3.29834 2.18223 -4.42634 8.97758 6.49657 -7.95811 -9.71431 -2.74388 -12.09084 -7.51096 2.69133 12.70119 -2.4015 -5.04587 3.16404 5.86261
0.00446 0.5795 -0.00116 181.68514 0 -3.68587 7.74962 3.35914 -3.23639 -29.50888 6.65362 3.99945 21.20958 -21.07456 14.76404 9.1737 80.90499 -1.62491 -2.52782 22.51409 5.25565 -10.90789 7.50387 -78.66652 -3.35679 2.31486 -4.42735 9.06864 8.06335 -7.90959 -9.89336 -2.68412 -13.60181 -7.44352 2.68485 12.69967 -2.45964 -5.06259 3.16326 5.86167
0.00488 0.57957 -0.00118 181.69114 0 -3.66642 7.68686 3.37927 -3.27654 -29.46517 6.57581 3.88389 21.45832 -21.04878 14.95458 9.28858 80.86804 -1.66671 -2.61032 22.95753 5.28463 -11.93293 7.7488 -78.8592 -3.41725 2.4421 -4.44246 9.18106 10.02883 -7.84219 -10.11445 -2.60817 -15.50677 -7.36506 2.6737 12.68913 -2.53552 -5.07729 3.16397 5.86685
0.00531 0.57962 -0.00121 181.67055 0 -3.65771 7.62208 3.41222 -3.30967 -29.39371 6.49584 3.77649 21.71343 -21.02047 15.15481 9.41991 80.85212 -1.71031 -2.71649 23.3891 5.31989 -12.94421 8.00627 -79.03222 -3.47562 2.58306 -4.42759 9.25523 11.27569 -7.8149 -10.25612 -2.5585 -16.69468 -7.30977 2.67087 12.7031 -2.57291 -5.09722 3.16132 5.85732
0.00576 0.57965 -0.00128 181.57979 0 -3.68089 7.55312 3.48255 -3.3201 -29.25751 6.41024 3.69414 21.9791 -20.98767 15.36051 9.59089 80.89203 -1.7537 -2.8795 23.79086 5.36888 -13.92352 8.29315 -79.13171 -3.52451 2.75882 -4.32819 9.20743 10.28377 -7.89809 -10.16534 -2.62117 -15.65796 -7.31826 2.69319 12.78112 -2.50506 -5.12941 3.1495 5.80728
0.00622 0.57966 -0.00138 181.46321 0 -3.71457 7.4829 3.56476 -3.32423 -29.09525 6.32331 3.61993 22.24999 -20.95233 15.57485 9.77752 80.95251 -1.79876 -3.06502 24.17818 5.42477 -14.88105 8.59147 -79.20909 -3.57122 2.9477 -4.19919 9.12239 8.58283 -8.02154 -9.9945 -2.70486 -13.91464 -7.34998 2.72393 12.88249 -2.39889 -5.1669 3.13441 5.74314
0.00667 0.57968 -0.00147 181.35914 0 -3.74228 7.41414 3.63916 -3.33394 -28.9444 6.23822 3.54076 22.51849 -20.91714 15.7897 9.95715 81.00295 -1.84436 -3.24031 24.56635 5.47989 -15.83265 8.88447 -79.29723 -3.62 3.13058 -4.08526 9.06197 7.31203 -8.12662 -9.86355 -2.75404 -12.59917 -7.3715 2.75021 12.97195 -2.30975 -5.20306 3.12089 5.68651
0.00715 0.5797 -0.00153 181.25068 0 -3.7751 7.34088 3.72423 -3.33228 -28.7926 6.14718 3.46644 22.78803 -20.88556 15.98807 10.13719 81.05683 -1.88508 -3.41708 24.9789 5.52535 -16.85457 9.17953 -79.38501 -3.6647 3.31447 -3.96418 8.97033 5.6061 -8.23246 -9.71855 -2.90459 -10.85225 -7.3923 2.77884 13.06833 -2.22056 -5.23533 3.10682 5.62443
0.00758 0.57972 -0.00167 181.14603 0 -3.79965 7.27725 3.7895 -3.35256 -28.63859 6.06884 3.38446 23.05631 -20.84648 16.2218 10.31971 81.1082 -1.93602 -3.59533 25.3376 5.59217 -17.72276 9.47177 -79.46725 -3.71703 3.49871 -3.85129 8.93391 4.62451 -8.34575 -9.58384 -2.85355 -9.8233 -7.41915 2.8048 13.15476 -2.12434 -5.27623 3.09333 5.5711
0.0079 0.57972 -0.00202 181.05354 0 -3.79998 7.23726 3.79984 -3.43725 -28.47391 6.02179 3.27568 23.31978 -20.7828 16.55302 10.50569 81.14816 -2.01599 -3.77479 25.54562 5.71942 -18.18027 9.76114 -79.53972 -3.79284 3.68484 -3.76559 9.06511 5.8871 -8.47425 -9.4931 -2.20333 -11.01796 -7.46522 2.82019 13.21469 -2.00178 -5.34561 3.08075 5.53992
0.00817 0.57972 -0.00246 180.96664 0 -3.79143 7.20775 3.78933 -3.54364 -28.31063 5.98839 3.15979 23.58185 -20.71262 16.91883 10.69326 81.18471 -2.10581 -3.9542 25.70111 5.86721 -18.48152 10.04552 -79.6069 -3.87593 3.86994 -3.68962 9.25193 7.88764 -8.60811 -9.41609 -1.35665 -12.94466 -7.51511 2.83285 13.26258 -1.87649 -5.42239 3.06915 5.51904
0.00846 0.57973 -0.00287 180.88043 0 -3.78615 7.17552 3.78655 -3.63882 -28.15356 5.95149 3.04931 23.84426 -20.6483 17.2673 10.87993 81.22242 -2.19031 -4.13185 25.88379 6.00371 -18.84873 10.3273 -79.67618 -3.95445 4.05292 -3.61102 9.40924 9.50245 -8.73646 -9.33524 -0.62435 -14.49012 -7.5578 2.84753 13.31127 -1.76328 -5.49186 3.05813 5.49717
0.00877 0.57973 -0.00326 180.78003 0 -3.78441 7.13426 3.79146 -3.74018 -27.96484 5.90311 2.92915 24.10743 -20.57124 17.62317 11.06864 81.26258 -2.27871 -4.31823 26.05088 6.14923 -19.23788 10.63091 -79.74639 -4.03846 4.24776 -3.524 9.58318 11.30666 -8.87881 -9.24137 0.21359 -16.2176 -7.62413 2.85921 13.37988 -1.60322 -5.57815 3.04273 5.4595
0.00903 0.57973 -0.0037 180.71042 0 -3.77311 7.11477 3.77536 -3.83301 -27.84497 5.88193 2.82832 24.36948 -20.51966 17.97147 11.25237 81.29646 -2.361 -4.48561 26.23953 6.28011 -19.54287 10.8866 -79.81323 -4.11248 4.41687 -3.45699 9.73611 12.89923 -8.99321 -9.17907 0.87791 -17.74719 -7.64211 2.87635 13.4046 -1.54025 -5.63115 3.03667 5.457
0.00916 0.57975 -0.00429 180.72831 0 -3.73691 7.1489 3.70531 -3.90519 -27.89593 5.93233 2.77454 24.62116 -20.53624 18.2923 11.42951 81.31471 -2.42658 -4.60473 26.4885 6.37091 -19.66708 11.02072 -79.87603 -4.15998 4.52019 -3.44516 9.81801 13.74313 -9.02488 -9.19943 1.01958 -18.56934 -7.52286 2.90948 13.3041 -1.74936 -5.5899 3.05658 5.55238
